<svg width="434" height="285" viewBox="0 0 434 285" fill="none" xmlns="http://www.w3.org/2000/svg">
<path d="M119.981 279.902V270.448H123.175C123.917 270.448 124.523 270.582 124.994 270.849C125.468 271.114 125.819 271.473 126.047 271.925C126.275 272.377 126.388 272.882 126.388 273.439C126.388 273.996 126.275 274.503 126.047 274.958C125.822 275.414 125.474 275.777 125.004 276.048C124.533 276.315 123.929 276.449 123.194 276.449H120.904V275.434H123.157C123.665 275.434 124.073 275.346 124.38 275.17C124.688 274.995 124.911 274.758 125.05 274.46C125.191 274.158 125.262 273.818 125.262 273.439C125.262 273.061 125.191 272.722 125.05 272.424C124.911 272.125 124.687 271.891 124.376 271.722C124.065 271.55 123.652 271.463 123.138 271.463H121.126V279.902H119.981ZM127.656 279.902H126.455L129.927 270.448H131.109L134.58 279.902H133.38L130.555 271.944H130.481L127.656 279.902ZM128.099 276.209H132.937V277.225H128.099V276.209ZM142.072 273.402C141.97 273.092 141.836 272.813 141.67 272.567C141.507 272.317 141.312 272.105 141.084 271.93C140.859 271.754 140.604 271.62 140.318 271.528C140.031 271.436 139.717 271.39 139.376 271.39C138.816 271.39 138.306 271.534 137.848 271.824C137.389 272.113 137.024 272.539 136.754 273.102C136.483 273.665 136.347 274.356 136.347 275.175C136.347 275.994 136.484 276.685 136.758 277.248C137.032 277.811 137.403 278.237 137.871 278.527C138.339 278.816 138.865 278.961 139.45 278.961C139.991 278.961 140.468 278.845 140.881 278.614C141.296 278.38 141.619 278.051 141.85 277.626C142.084 277.199 142.201 276.695 142.201 276.117L142.552 276.191H139.708V275.175H143.309V276.191C143.309 276.969 143.143 277.646 142.81 278.222C142.481 278.797 142.026 279.244 141.444 279.561C140.865 279.875 140.201 280.032 139.45 280.032C138.613 280.032 137.877 279.835 137.243 279.441C136.612 279.047 136.12 278.487 135.766 277.76C135.415 277.034 135.239 276.172 135.239 275.175C135.239 274.427 135.339 273.755 135.54 273.158C135.743 272.558 136.029 272.047 136.398 271.625C136.767 271.203 137.205 270.88 137.709 270.656C138.214 270.431 138.77 270.319 139.376 270.319C139.874 270.319 140.339 270.394 140.77 270.545C141.204 270.692 141.59 270.903 141.929 271.177C142.27 271.448 142.555 271.773 142.783 272.151C143.011 272.527 143.167 272.944 143.254 273.402H142.072ZM145.27 279.902V270.448H150.976V271.463H146.415V274.658H150.68V275.674H146.415V278.887H151.05V279.902H145.27ZM162.9 270.448H164.045V276.708C164.045 277.354 163.893 277.931 163.588 278.439C163.286 278.944 162.86 279.342 162.309 279.635C161.758 279.924 161.112 280.069 160.37 280.069C159.629 280.069 158.982 279.924 158.431 279.635C157.881 279.342 157.453 278.944 157.148 278.439C156.846 277.931 156.696 277.354 156.696 276.708V270.448H157.841V276.615C157.841 277.077 157.942 277.488 158.145 277.848C158.348 278.205 158.638 278.487 159.013 278.693C159.392 278.896 159.844 278.998 160.37 278.998C160.897 278.998 161.349 278.896 161.728 278.693C162.106 278.487 162.395 278.205 162.596 277.848C162.799 277.488 162.9 277.077 162.9 276.615V270.448ZM173.829 270.448V279.902H172.721L167.569 272.479H167.476V279.902H166.331V270.448H167.439L172.61 277.89H172.702V270.448H173.829ZM179.037 279.902H176.119V270.448H179.166C180.084 270.448 180.868 270.637 181.521 271.016C182.173 271.391 182.673 271.931 183.021 272.636C183.369 273.338 183.543 274.178 183.543 275.157C183.543 276.141 183.367 276.989 183.017 277.7C182.666 278.408 182.155 278.953 181.484 279.335C180.813 279.713 179.997 279.902 179.037 279.902ZM177.264 278.887H178.963C179.745 278.887 180.393 278.736 180.907 278.434C181.421 278.133 181.804 277.703 182.056 277.146C182.309 276.589 182.435 275.926 182.435 275.157C182.435 274.393 182.31 273.736 182.061 273.185C181.812 272.631 181.439 272.207 180.944 271.911C180.448 271.613 179.831 271.463 179.093 271.463H177.264V278.887ZM185.463 279.902V270.448H191.169V271.463H186.608V274.658H190.874V275.674H186.608V278.887H191.243V279.902H185.463ZM193.233 279.902V270.448H196.427C197.166 270.448 197.772 270.574 198.246 270.826C198.72 271.076 199.071 271.419 199.299 271.856C199.527 272.293 199.64 272.79 199.64 273.347C199.64 273.904 199.527 274.398 199.299 274.829C199.071 275.26 198.722 275.598 198.251 275.844C197.78 276.088 197.178 276.209 196.446 276.209H193.861V275.175H196.409C196.914 275.175 197.32 275.101 197.628 274.953C197.939 274.806 198.163 274.596 198.302 274.326C198.443 274.052 198.514 273.725 198.514 273.347C198.514 272.968 198.443 272.638 198.302 272.354C198.16 272.071 197.934 271.853 197.623 271.699C197.312 271.542 196.901 271.463 196.39 271.463H194.378V279.902H193.233ZM197.683 275.655L200.01 279.902H198.68L196.39 275.655H197.683ZM212.812 273.402H211.668C211.6 273.073 211.481 272.784 211.312 272.534C211.146 272.285 210.943 272.076 210.703 271.907C210.466 271.734 210.203 271.605 209.913 271.519C209.624 271.433 209.322 271.39 209.008 271.39C208.436 271.39 207.917 271.534 207.453 271.824C206.991 272.113 206.623 272.539 206.349 273.102C206.079 273.665 205.943 274.356 205.943 275.175C205.943 275.994 206.079 276.685 206.349 277.248C206.623 277.811 206.991 278.237 207.453 278.527C207.917 278.816 208.436 278.961 209.008 278.961C209.322 278.961 209.624 278.917 209.913 278.831C210.203 278.745 210.466 278.617 210.703 278.448C210.943 278.276 211.146 278.065 211.312 277.816C211.481 277.563 211.6 277.274 211.668 276.948H212.812C212.726 277.431 212.569 277.863 212.342 278.245C212.114 278.627 211.831 278.951 211.492 279.219C211.154 279.484 210.773 279.685 210.352 279.824C209.933 279.962 209.485 280.032 209.008 280.032C208.202 280.032 207.485 279.835 206.857 279.441C206.229 279.047 205.735 278.487 205.375 277.76C205.015 277.034 204.835 276.172 204.835 275.175C204.835 274.178 205.015 273.316 205.375 272.59C205.735 271.864 206.229 271.303 206.857 270.909C207.485 270.516 208.202 270.319 209.008 270.319C209.485 270.319 209.933 270.388 210.352 270.526C210.773 270.665 211.154 270.868 211.492 271.136C211.831 271.4 212.114 271.723 212.342 272.105C212.569 272.484 212.726 272.916 212.812 273.402ZM222.64 275.175C222.64 276.172 222.46 277.034 222.1 277.76C221.74 278.487 221.246 279.047 220.618 279.441C219.99 279.835 219.273 280.032 218.466 280.032C217.66 280.032 216.943 279.835 216.315 279.441C215.687 279.047 215.193 278.487 214.833 277.76C214.473 277.034 214.293 276.172 214.293 275.175C214.293 274.178 214.473 273.316 214.833 272.59C215.193 271.864 215.687 271.303 216.315 270.909C216.943 270.516 217.66 270.319 218.466 270.319C219.273 270.319 219.99 270.516 220.618 270.909C221.246 271.303 221.74 271.864 222.1 272.59C222.46 273.316 222.64 274.178 222.64 275.175ZM221.532 275.175C221.532 274.356 221.395 273.665 221.121 273.102C220.85 272.539 220.482 272.113 220.018 271.824C219.556 271.534 219.039 271.39 218.466 271.39C217.894 271.39 217.375 271.534 216.911 271.824C216.449 272.113 216.081 272.539 215.807 273.102C215.537 273.665 215.401 274.356 215.401 275.175C215.401 275.994 215.537 276.685 215.807 277.248C216.081 277.811 216.449 278.237 216.911 278.527C217.375 278.816 217.894 278.961 218.466 278.961C219.039 278.961 219.556 278.816 220.018 278.527C220.482 278.237 220.85 277.811 221.121 277.248C221.395 276.685 221.532 275.994 221.532 275.175ZM232.062 270.448V279.902H230.954L225.802 272.479H225.71V279.902H224.565V270.448H225.673L230.843 277.89H230.936V270.448H232.062ZM239.523 272.811C239.468 272.344 239.243 271.98 238.849 271.722C238.455 271.463 237.972 271.334 237.4 271.334C236.981 271.334 236.615 271.402 236.301 271.537C235.99 271.673 235.747 271.859 235.572 272.096C235.399 272.333 235.313 272.602 235.313 272.904C235.313 273.156 235.373 273.373 235.493 273.555C235.616 273.733 235.773 273.882 235.964 274.002C236.155 274.119 236.355 274.216 236.564 274.293C236.773 274.367 236.966 274.427 237.141 274.473L238.101 274.732C238.348 274.797 238.622 274.886 238.923 275C239.228 275.114 239.519 275.269 239.796 275.466C240.076 275.66 240.307 275.909 240.488 276.214C240.67 276.518 240.761 276.892 240.761 277.336C240.761 277.846 240.627 278.308 240.359 278.721C240.094 279.133 239.706 279.461 239.196 279.704C238.688 279.947 238.071 280.069 237.344 280.069C236.667 280.069 236.081 279.959 235.585 279.741C235.093 279.522 234.705 279.218 234.422 278.827C234.142 278.436 233.984 277.982 233.947 277.465H235.128C235.159 277.822 235.279 278.117 235.489 278.351C235.701 278.582 235.969 278.754 236.292 278.868C236.618 278.979 236.969 279.034 237.344 279.034C237.781 279.034 238.174 278.964 238.522 278.822C238.869 278.677 239.145 278.477 239.348 278.222C239.551 277.963 239.653 277.662 239.653 277.317C239.653 277.003 239.565 276.748 239.389 276.551C239.214 276.354 238.983 276.194 238.697 276.071C238.411 275.948 238.101 275.84 237.769 275.748L236.606 275.415C235.867 275.203 235.282 274.9 234.851 274.506C234.421 274.112 234.205 273.596 234.205 272.959C234.205 272.43 234.348 271.968 234.634 271.574C234.924 271.177 235.312 270.869 235.798 270.651C236.287 270.429 236.833 270.319 237.437 270.319C238.046 270.319 238.588 270.428 239.062 270.646C239.536 270.862 239.911 271.157 240.188 271.533C240.468 271.908 240.616 272.334 240.631 272.811H239.523ZM242.126 271.463V270.448H249.217V271.463H246.244V279.902H245.099V271.463H242.126ZM250.984 279.902V270.448H254.178C254.917 270.448 255.523 270.574 255.997 270.826C256.471 271.076 256.822 271.419 257.05 271.856C257.278 272.293 257.391 272.79 257.391 273.347C257.391 273.904 257.278 274.398 257.05 274.829C256.822 275.26 256.473 275.598 256.002 275.844C255.531 276.088 254.929 276.209 254.197 276.209H251.612V275.175H254.16C254.665 275.175 255.071 275.101 255.379 274.953C255.689 274.806 255.914 274.596 256.053 274.326C256.194 274.052 256.265 273.725 256.265 273.347C256.265 272.968 256.194 272.638 256.053 272.354C255.911 272.071 255.685 271.853 255.374 271.699C255.063 271.542 254.652 271.463 254.141 271.463H252.129V279.902H250.984ZM255.434 275.655L257.761 279.902H256.431L254.141 275.655H255.434ZM265.504 270.448H266.649V276.708C266.649 277.354 266.496 277.931 266.192 278.439C265.89 278.944 265.464 279.342 264.913 279.635C264.362 279.924 263.716 280.069 262.974 280.069C262.232 280.069 261.586 279.924 261.035 279.635C260.484 279.342 260.056 278.944 259.752 278.439C259.45 277.931 259.299 277.354 259.299 276.708V270.448H260.444V276.615C260.444 277.077 260.546 277.488 260.749 277.848C260.952 278.205 261.241 278.487 261.617 278.693C261.995 278.896 262.448 278.998 262.974 278.998C263.5 278.998 263.953 278.896 264.331 278.693C264.71 278.487 264.999 278.205 265.199 277.848C265.402 277.488 265.504 277.077 265.504 276.615V270.448ZM276.543 273.402H275.398C275.33 273.073 275.212 272.784 275.043 272.534C274.876 272.285 274.673 272.076 274.433 271.907C274.196 271.734 273.933 271.605 273.644 271.519C273.354 271.433 273.053 271.39 272.739 271.39C272.166 271.39 271.648 271.534 271.183 271.824C270.722 272.113 270.354 272.539 270.08 273.102C269.809 273.665 269.674 274.356 269.674 275.175C269.674 275.994 269.809 276.685 270.08 277.248C270.354 277.811 270.722 278.237 271.183 278.527C271.648 278.816 272.166 278.961 272.739 278.961C273.053 278.961 273.354 278.917 273.644 278.831C273.933 278.745 274.196 278.617 274.433 278.448C274.673 278.276 274.876 278.065 275.043 277.816C275.212 277.563 275.33 277.274 275.398 276.948H276.543C276.457 277.431 276.3 277.863 276.072 278.245C275.844 278.627 275.561 278.951 275.223 279.219C274.884 279.484 274.504 279.685 274.082 279.824C273.664 279.962 273.216 280.032 272.739 280.032C271.933 280.032 271.215 279.835 270.588 279.441C269.96 279.047 269.466 278.487 269.106 277.76C268.746 277.034 268.566 276.172 268.566 275.175C268.566 274.178 268.746 273.316 269.106 272.59C269.466 271.864 269.96 271.303 270.588 270.909C271.215 270.516 271.933 270.319 272.739 270.319C273.216 270.319 273.664 270.388 274.082 270.526C274.504 270.665 274.884 270.868 275.223 271.136C275.561 271.4 275.844 271.723 276.072 272.105C276.3 272.484 276.457 272.916 276.543 273.402ZM277.876 271.463V270.448H284.967V271.463H281.994V279.902H280.849V271.463H277.876ZM287.879 270.448V279.902H286.734V270.448H287.879ZM298.151 275.175C298.151 276.172 297.971 277.034 297.611 277.76C297.251 278.487 296.757 279.047 296.129 279.441C295.502 279.835 294.785 280.032 293.978 280.032C293.172 280.032 292.455 279.835 291.827 279.441C291.199 279.047 290.705 278.487 290.345 277.76C289.985 277.034 289.805 276.172 289.805 275.175C289.805 274.178 289.985 273.316 290.345 272.59C290.705 271.864 291.199 271.303 291.827 270.909C292.455 270.516 293.172 270.319 293.978 270.319C294.785 270.319 295.502 270.516 296.129 270.909C296.757 271.303 297.251 271.864 297.611 272.59C297.971 273.316 298.151 274.178 298.151 275.175ZM297.044 275.175C297.044 274.356 296.907 273.665 296.633 273.102C296.362 272.539 295.994 272.113 295.529 271.824C295.068 271.534 294.551 271.39 293.978 271.39C293.406 271.39 292.887 271.534 292.422 271.824C291.961 272.113 291.593 272.539 291.319 273.102C291.048 273.665 290.913 274.356 290.913 275.175C290.913 275.994 291.048 276.685 291.319 277.248C291.593 277.811 291.961 278.237 292.422 278.527C292.887 278.816 293.406 278.961 293.978 278.961C294.551 278.961 295.068 278.816 295.529 278.527C295.994 278.237 296.362 277.811 296.633 277.248C296.907 276.685 297.044 275.994 297.044 275.175ZM307.574 270.448V279.902H306.466L301.314 272.479H301.221V279.902H300.077V270.448H301.184L306.355 277.89H306.447V270.448H307.574Z" fill="#516092"/>
<path d="M362.491 281.343H339.711C338.961 281.343 338.353 281.951 338.353 282.701C338.353 283.451 338.961 284.059 339.711 284.059H362.491C363.241 284.059 363.85 283.451 363.85 282.701C363.85 281.951 363.241 281.343 362.491 281.343Z" fill="#729CF8"/>
<path d="M352.95 261.977C352.843 261.684 352.565 261.489 352.253 261.489H349.642C349.327 261.489 349.046 261.688 348.942 261.986L341.591 283.016H360.609L352.95 261.977Z" fill="#729CF8"/>
<path d="M347.582 265.878L346.421 269.2H355.58L354.37 265.878H347.582Z" fill="#ECEFF1"/>
<path d="M344.623 274.342L343.462 277.664H358.662L357.452 274.342H344.623Z" fill="#ECEFF1"/>
<path d="M84.291 281.18H61.511C60.761 281.18 60.153 281.788 60.153 282.538C60.153 283.288 60.761 283.896 61.511 283.896H84.291C85.041 283.896 85.649 283.288 85.649 282.538C85.649 281.788 85.042 281.18 84.291 281.18Z" fill="#729CF8"/>
<path d="M74.75 261.814C74.643 261.521 74.365 261.326 74.053 261.326H71.442C71.127 261.326 70.846 261.525 70.742 261.823L63.391 282.853H82.409L74.75 261.814Z" fill="#729CF8"/>
<path d="M69.3819 265.715L68.2209 269.037H77.3799L76.1709 265.715H69.3819Z" fill="#ECEFF1"/>
<path d="M66.424 274.179L65.2629 277.501H80.4619L79.252 274.179H66.424Z" fill="#ECEFF1"/>
<path opacity="0.5" d="M125.503 129.93H70.905V224.664H125.503H140.429H204.616V59.4692H125.503V129.93Z" fill="#D4E0FF"/>
<path opacity="0.5" d="M294.616 135.668V0H215.503V224.664H291.501H294.616H352.698V135.668H294.616Z" fill="#D4E0FF"/>
<path d="M434.001 221.664H0V223.664H434.001V221.664Z" fill="#516092"/>
<path d="M285.814 82.6641H95.0909V232.555H285.814V82.6641Z" fill="#BCCCFD"/>
<path d="M285.814 99.6431H95.0909V232.555H285.814V99.6431Z" fill="white"/>
<path d="M101.924 93.6109C103.461 93.6109 104.707 92.3649 104.707 90.8279C104.707 89.2909 103.461 88.0449 101.924 88.0449C100.387 88.0449 99.141 89.2909 99.141 90.8279C99.141 92.3649 100.387 93.6109 101.924 93.6109Z" fill="white"/>
<path d="M116.539 90.8279C116.539 92.3649 115.293 93.6109 113.756 93.6109C112.219 93.6109 110.973 92.3649 110.973 90.8279C110.973 89.2909 112.219 88.0449 113.756 88.0449C115.293 88.0449 116.539 89.2909 116.539 90.8279Z" fill="white"/>
<path d="M128.371 90.8279C128.371 92.3649 127.125 93.6109 125.588 93.6109C124.051 93.6109 122.805 92.3649 122.805 90.8279C122.805 89.2909 124.051 88.0449 125.588 88.0449C127.125 88.0449 128.371 89.2909 128.371 90.8279Z" fill="white"/>
<path d="M220.198 95.8331H141.701C139.077 95.8331 136.95 93.706 136.95 91.082C136.95 88.458 139.077 86.3311 141.701 86.3311H220.198C222.822 86.3311 224.949 88.458 224.949 91.082C224.95 93.706 222.823 95.8331 220.198 95.8331Z" fill="white"/>
<path d="M274.195 95.8331H237.031C234.407 95.8331 232.28 93.706 232.28 91.082C232.28 88.458 234.407 86.3311 237.031 86.3311H274.195C276.819 86.3311 278.946 88.458 278.946 91.082C278.946 93.706 276.819 95.8331 274.195 95.8331Z" fill="white"/>
<path d="M178.16 158.862H110.315V197.157H178.16V158.862Z" fill="#BCCCFD"/>
<path d="M178.16 111.862H110.315V150.157H178.16V111.862Z" fill="#BCCCFD"/>
<path d="M177.571 206.831H110.905V209.831H177.571V206.831Z" fill="#BCCCFD"/>
<path d="M177.571 216.831H110.905V219.831H177.571V216.831Z" fill="#BCCCFD"/>
<path d="M268.283 206.831H201.617V209.831H268.283V206.831Z" fill="#BCCCFD"/>
<path d="M268.283 216.831H201.617V219.831H268.283V216.831Z" fill="#BCCCFD"/>
<path d="M286.814 233.556H94.0909V81.6641H286.814V233.556ZM96.0909 231.556H284.814V83.6641H96.0909V231.556Z" fill="#516092"/>
<path d="M332.508 210.998H312.942V46.332H332.508V210.998ZM314.942 208.998H330.508V48.332H314.942V208.998Z" fill="#516092"/>
<path d="M335.187 201.472H310.264V219.331H335.187V201.472Z" fill="#BCCCFD"/>
<path d="M331.615 191.997H314.282C313.885 191.997 313.525 191.762 313.365 191.397C313.206 191.033 313.278 190.609 313.548 190.317L330.214 172.318L331.682 173.676L316.57 189.996H331.614V191.997H331.615Z" fill="#516092"/>
<path d="M331.615 173.963H314.282C313.885 173.963 313.525 173.728 313.365 173.363C313.206 172.999 313.278 172.575 313.548 172.283L330.214 154.283L331.682 155.641L316.57 171.962H331.614V173.963H331.615Z" fill="#516092"/>
<path d="M331.615 155.929H314.282C313.885 155.929 313.525 155.694 313.365 155.329C313.206 154.965 313.278 154.541 313.548 154.249L330.214 136.249L331.682 137.607L316.57 153.928H331.614V155.929H331.615Z" fill="#516092"/>
<path d="M331.615 137.895H314.282C313.885 137.895 313.525 137.66 313.365 137.295C313.206 136.931 313.278 136.507 313.548 136.215L330.214 118.215L331.682 119.573L316.57 135.894H331.614V137.895H331.615Z" fill="#516092"/>
<path d="M331.615 119.861H314.282C313.885 119.861 313.525 119.626 313.365 119.261C313.206 118.897 313.278 118.473 313.548 118.181L330.214 100.181L331.682 101.539L316.57 117.86H331.614V119.861H331.615Z" fill="#516092"/>
<path d="M331.615 101.827H314.282C313.885 101.827 313.525 101.592 313.365 101.227C313.206 100.863 313.278 100.439 313.548 100.147L330.214 82.147L331.682 83.505L316.57 99.826H331.614V101.827H331.615Z" fill="#516092"/>
<path d="M331.615 83.7928H314.282C313.885 83.7928 313.525 83.5578 313.365 83.1928C313.206 82.8288 313.278 82.4048 313.548 82.1128L330.214 64.1128L331.682 65.4708L316.57 81.7918H331.614V83.7928H331.615Z" fill="#516092"/>
<path d="M331.615 65.7586H314.282C313.885 65.7586 313.525 65.5236 313.365 65.1586C313.205 64.7936 313.278 64.3706 313.548 64.0786L330.214 46.0786L331.682 47.4366L316.57 63.7576H331.614V65.7586H331.615Z" fill="#516092"/>
<path d="M332.475 39.3779H300.756V66.1179H332.475V39.3779Z" fill="#729CF8"/>
<path d="M380.141 39.3779H348.422V54.7369H380.141V39.3779Z" fill="#729CF8"/>
<path d="M379.615 41.3306H222.948C222.396 41.3306 221.948 40.8826 221.948 40.3306C221.948 39.7786 222.396 39.3306 222.948 39.3306H379.615C380.167 39.3306 380.615 39.7786 380.615 40.3306C380.615 40.8826 380.167 41.3306 379.615 41.3306Z" fill="#516092"/>
<path d="M231.226 44.9976H230.226V109.998H231.226V44.9976Z" fill="#516092"/>
<path d="M343.687 216.139H301.763V223.998H343.687V216.139Z" fill="#516092"/>
<path d="M316.732 41.0688C316.604 41.0688 316.476 41.0198 316.379 40.9228L308.025 32.5688H231.439L223.585 40.4228C223.39 40.6178 223.073 40.6178 222.878 40.4228C222.683 40.2278 222.683 39.9108 222.878 39.7158L231.024 31.5698H308.438L317.084 40.2158C317.279 40.4108 317.279 40.7278 317.084 40.9228C316.988 41.0198 316.86 41.0688 316.732 41.0688Z" fill="#516092"/>
<path d="M380.282 41.0686C380.102 41.0686 379.928 40.9706 379.839 40.8006L371.479 24.8306H351.205L343.344 40.2956C343.219 40.5416 342.917 40.6376 342.672 40.5146C342.426 40.3896 342.328 40.0886 342.453 39.8426L350.592 23.8306H372.085L380.725 40.3366C380.853 40.5816 380.759 40.8836 380.514 41.0116C380.439 41.0506 380.36 41.0686 380.282 41.0686Z" fill="#516092"/>
<path d="M234.393 44.9966C234.393 47.0216 232.751 48.6636 230.726 48.6636C228.701 48.6636 227.059 47.0216 227.059 44.9966C227.059 42.9716 228.701 41.3296 230.726 41.3296C232.751 41.3306 234.393 42.9716 234.393 44.9966Z" fill="#BCCCFD"/>
<path d="M269.85 108.696L186.116 116.432L190.102 159.583L273.836 151.847L269.85 108.696Z" fill="#BCCCFD"/>
<path d="M252.405 32.562C252.191 32.562 251.992 32.423 251.927 32.208C251.846 31.944 251.995 31.664 252.259 31.584L326.292 9.00995C326.405 8.97595 326.525 8.98196 326.632 9.02796L361.721 23.837C361.975 23.944 362.095 24.237 361.987 24.492C361.88 24.747 361.586 24.866 361.332 24.758L326.411 10.019L252.551 32.54C252.502 32.555 252.454 32.562 252.405 32.562Z" fill="#516092"/>
<path d="M314.791 41.1359C314.673 41.1359 314.553 41.1149 314.436 41.0699C313.92 40.8739 313.661 40.2969 313.857 39.7799L325.514 9.10588C325.672 8.69088 326.082 8.42788 326.531 8.46488C326.975 8.50188 327.342 8.82689 327.429 9.26389L333.455 39.1799C333.564 39.7209 333.213 40.2479 332.672 40.3579C332.132 40.4629 331.604 40.1159 331.494 39.5749L326.152 13.0549L315.725 40.4909C315.574 40.8899 315.194 41.1359 314.791 41.1359Z" fill="#516092"/>
<path d="M328.463 9.4608C328.463 10.5738 327.561 11.4758 326.448 11.4758C325.335 11.4758 324.433 10.5738 324.433 9.4608C324.433 8.3478 325.335 7.4458 326.448 7.4458C327.561 7.4458 328.463 8.3478 328.463 9.4608Z" fill="#BCCCFD"/>
<path d="M241.864 41.164C241.754 41.164 241.643 41.128 241.55 41.053L231.731 33.116V40.537C231.731 40.813 231.507 41.037 231.231 41.037C230.955 41.037 230.731 40.813 230.731 40.537V32.069C230.731 31.876 230.842 31.701 231.016 31.618C231.189 31.535 231.396 31.558 231.546 31.681L242.18 40.276C242.395 40.449 242.428 40.764 242.254 40.979C242.155 41.101 242.01 41.164 241.864 41.164Z" fill="#516092"/>
<path d="M251.36 41.164C251.25 41.164 251.139 41.128 251.046 41.053L241.226 33.116V40.537C241.226 40.813 241.002 41.037 240.726 41.037C240.45 41.037 240.226 40.813 240.226 40.537V32.069C240.226 31.876 240.337 31.701 240.511 31.618C240.683 31.535 240.89 31.558 241.041 31.681L251.675 40.276C251.89 40.449 251.923 40.764 251.749 40.979C251.65 41.101 251.506 41.164 251.36 41.164Z" fill="#516092"/>
<path d="M260.855 41.164C260.745 41.164 260.634 41.128 260.541 41.053L250.721 33.116V40.537C250.721 40.813 250.497 41.037 250.221 41.037C249.945 41.037 249.721 40.813 249.721 40.537V32.069C249.721 31.876 249.832 31.701 250.006 31.618C250.178 31.535 250.385 31.558 250.536 31.681L261.17 40.276C261.385 40.449 261.418 40.764 261.244 40.979C261.146 41.101 261.001 41.164 260.855 41.164Z" fill="#516092"/>
<path d="M270.351 41.164C270.241 41.164 270.13 41.128 270.037 41.053L260.218 33.116V40.537C260.218 40.813 259.994 41.037 259.718 41.037C259.442 41.037 259.218 40.813 259.218 40.537V32.069C259.218 31.876 259.329 31.701 259.503 31.618C259.676 31.535 259.882 31.558 260.033 31.681L270.667 40.276C270.882 40.449 270.915 40.764 270.741 40.979C270.641 41.101 270.497 41.164 270.351 41.164Z" fill="#516092"/>
<path d="M279.846 41.164C279.736 41.164 279.625 41.128 279.532 41.053L269.712 33.116V40.537C269.712 40.813 269.488 41.037 269.212 41.037C268.936 41.037 268.712 40.813 268.712 40.537V32.069C268.712 31.876 268.823 31.701 268.997 31.618C269.17 31.535 269.376 31.558 269.527 31.681L280.161 40.276C280.376 40.449 280.409 40.764 280.235 40.979C280.137 41.101 279.992 41.164 279.846 41.164Z" fill="#516092"/>
<path d="M289.342 41.164C289.232 41.164 289.121 41.128 289.028 41.053L279.208 33.116V40.537C279.208 40.813 278.984 41.037 278.708 41.037C278.432 41.037 278.208 40.813 278.208 40.537V32.069C278.208 31.876 278.319 31.701 278.493 31.618C278.665 31.535 278.872 31.558 279.023 31.681L289.657 40.276C289.872 40.449 289.905 40.764 289.731 40.979C289.632 41.101 289.488 41.164 289.342 41.164Z" fill="#516092"/>
<path d="M298.837 41.164C298.727 41.164 298.616 41.128 298.523 41.053L288.703 33.116V40.537C288.703 40.813 288.479 41.037 288.203 41.037C287.927 41.037 287.703 40.813 287.703 40.537V32.069C287.703 31.876 287.814 31.701 287.988 31.618C288.16 31.535 288.367 31.558 288.518 31.681L299.152 40.276C299.367 40.449 299.4 40.764 299.226 40.979C299.127 41.101 298.983 41.164 298.837 41.164Z" fill="#516092"/>
<path d="M308.333 41.164C308.223 41.164 308.112 41.128 308.019 41.053L298.199 33.116V40.537C298.199 40.813 297.975 41.037 297.699 41.037C297.423 41.037 297.199 40.813 297.199 40.537V32.069C297.199 31.876 297.31 31.701 297.484 31.618C297.657 31.535 297.864 31.558 298.014 31.681L308.648 40.276C308.863 40.449 308.896 40.764 308.722 40.979C308.623 41.101 308.479 41.164 308.333 41.164Z" fill="#516092"/>
<path d="M364.467 41.1639C364.325 41.1639 364.184 41.1039 364.085 40.9869L351.332 25.9359V40.5369C351.332 40.8129 351.108 41.0369 350.832 41.0369C350.556 41.0369 350.332 40.8129 350.332 40.5369V24.5729C350.332 24.3629 350.463 24.1759 350.66 24.1039C350.858 24.0309 351.078 24.0889 351.214 24.2499L364.849 40.3409C365.028 40.5509 365.001 40.8669 364.791 41.0449C364.696 41.1249 364.581 41.1639 364.467 41.1639Z" fill="#516092"/>
<path d="M374.276 41.1637C374.114 41.1637 373.955 41.0847 373.858 40.9397L364.141 26.2357V40.5367C364.141 40.8127 363.917 41.0367 363.641 41.0367C363.365 41.0367 363.141 40.8127 363.141 40.5367V24.5727C363.141 24.3517 363.286 24.1577 363.497 24.0937C363.711 24.0317 363.937 24.1137 364.058 24.2967L374.692 40.3877C374.844 40.6177 374.781 40.9287 374.551 41.0807C374.466 41.1367 374.371 41.1637 374.276 41.1637Z" fill="#516092"/>
<path d="M233.875 111.331C233.875 113.07 232.465 114.479 230.727 114.479C228.988 114.479 227.579 113.069 227.579 111.331C227.579 109.592 228.989 108.183 230.727 108.183C232.465 108.182 233.875 109.592 233.875 111.331Z" fill="#729CF8"/>
<path d="M62.116 174.165H60.116V222.164H62.116V174.165Z" fill="#516092"/>
<path d="M24.116 174.165H22.116V222.164H24.116V174.165Z" fill="#516092"/>
<path d="M67.335 178.664H17.116V197.164H67.335V178.664Z" fill="#E3EBFF"/>
<path d="M67.3349 197.164V179.664L58.1019 197.164H67.3349Z" fill="#729CF8"/>
<path d="M35.601 197.164H46.342L56.104 178.664H45.362L35.601 197.164Z" fill="#729CF8"/>
<path d="M22.862 178.664L17.116 189.554V197.164H23.842L33.603 178.664H22.862Z" fill="#729CF8"/>
<path d="M69.616 208.165H14.616V210.165H69.616V208.165Z" fill="#516092"/>
<path d="M410.115 174.165H408.115V222.164H410.115V174.165Z" fill="#516092"/>
<path d="M372.115 174.165H370.115V222.164H372.115V174.165Z" fill="#516092"/>
<path d="M415.334 178.664H365.115V197.164H415.334V178.664Z" fill="#E3EBFF"/>
<path d="M415.334 197.164V179.664L406.1 197.164H415.334Z" fill="#729CF8"/>
<path d="M383.6 197.164H394.341L404.102 178.664H393.361L383.6 197.164Z" fill="#729CF8"/>
<path d="M370.861 178.664L365.115 189.554V197.164H371.841L381.602 178.664H370.861Z" fill="#729CF8"/>
<path d="M417.615 208.165H362.615V210.165H417.615V208.165Z" fill="#516092"/>
<path d="M91.497 235.992H68.716C67.966 235.992 67.358 236.6 67.358 237.351C67.358 238.102 67.966 238.709 68.716 238.709H91.497C92.247 238.709 92.855 238.101 92.855 237.351C92.855 236.601 92.247 235.992 91.497 235.992Z" fill="#729CF8"/>
<path d="M81.956 216.625C81.849 216.332 81.571 216.137 81.259 216.137H78.648C78.333 216.137 78.052 216.336 77.948 216.634L70.597 237.664H89.615L81.956 216.625Z" fill="#729CF8"/>
<path d="M76.588 220.527L75.427 223.848H84.586L83.376 220.527H76.588Z" fill="#ECEFF1"/>
<path d="M73.629 228.991L72.468 232.313H87.668L86.458 228.991H73.629Z" fill="#ECEFF1"/>
<path opacity="0.5" d="M88.093 58.9441C86.425 58.9441 84.883 59.4741 83.616 60.3681V58.1631C83.616 51.8121 78.467 46.6631 72.116 46.6631C65.765 46.6631 60.616 51.8121 60.616 58.1631V62.5091C59.575 61.5211 58.171 60.9111 56.622 60.9111C53.414 60.9111 50.812 63.5121 50.812 66.7211H95.869C95.87 62.4261 92.388 58.9441 88.093 58.9441Z" fill="#D4E0FF"/>
<path opacity="0.5" d="M180.954 27.6051C179.739 27.6051 178.617 27.9911 177.695 28.6421V27.0361C177.695 22.4121 173.947 18.6641 169.323 18.6641C164.699 18.6641 160.951 22.4131 160.951 27.0361V30.2001C160.193 29.4811 159.171 29.0371 158.043 29.0371C155.707 29.0371 153.813 30.9311 153.813 33.2671H186.616C186.616 30.1401 184.081 27.6051 180.954 27.6051Z" fill="#D4E0FF"/>
</svg>
